<svg id="svg22" width="202.943" height="32" fill="none" version="1.1" viewBox="0 0 202.943 32"><g id="g863" transform="scale(0.27633851)"><path id="path2" fill="#0057b7" d="M 92.3,73.5 V 46.3 L 85.1,36.9 V 21.1 L 62,12.8 V 0 H 30.3 V 12.8 L 7.2,21.1 V 36.9 L 0,46.3 V 73.5 L 7.2,83.2 0,105.6 46.2,115.8 92.3,105.6 85.1,83.2 Z"/><path id="path4" fill="#000" d="M 46.2,83.2 C 58.9578,83.2 69.3,72.8578 69.3,60.1 69.3,47.3422 58.9578,37 46.2,37 33.4422,37 23.1,47.3422 23.1,60.1 c 0,12.7578 10.3422,23.1 23.1,23.1 z"/><path id="path6" fill="gold" d="m 178.4,107.9 h -10 v -10.0001 -10 -10 -10 h -10 -10 v 10 10 10 10.0001 h -10 -10 v -10.0001 -10 -10 -10 -10 -10 -10 -10 -10 -10 h 10 10 v 10 10 10 10 h 10 10 v -10 -10 -10 -10 h 10 10 v 10 10 10 10 10 10 10 10 10 10.0001 z"/><path id="path8" fill="#0057b7" d="m 256.4,107.9 h -10 -10 -10 -10 -10 v -10.0001 -10 -10 -10 -10 -10 -10 -10 -10 -10 h 10 10 10 10 10 10 v 10 10 h -10 -10 -10 -10 v 10 10 h 10 10 10 10 v 10 10 h -10 -10 -10 -10 v 10 10 h 10 10 10 10 v 10 10.0001 z"/><path id="path10" fill="red" d="m 334.4,107.9 h -10 v -10.0001 -10 -10 -10 h -10 -10 v 10 10 10 10.0001 h -10 -10 v -10.0001 -10 -10 -10 -10 -10 -10 -10 -10 -10 h 10 10 10 10 10 10 v 10 10 10 10 10 10 10 10 10 10.0001 z m -20,-60.0001 h 10 v -10 -10 h -10 -10 v 10 10 z"/><path id="path12" fill="orange" d="m 392.4,107.9 h -10 -10 -10 v -10.0001 -10 -10 -10 -10 -10 -10 -10 -10 -10 h 10 10 10 10 v 10 10 h 10 10 v 10 10 10 10 10 10 h -10 -10 v -10 -10 -10 -10 -10 -10 h -10 -10 v 10 10 10 10 10 10 h 10 10 v 10 10.0001 z"/><path id="path14" fill="green" d="m 490.4,107.9 h -10 -10 -10 -10 -10 v -10.0001 -10 -10 -10 -10 -10 -10 -10 -10 -10 h 10 10 v 10 10 10 10 10 10 10 10 h 10 10 10 10 v 10 10.0001 z"/><path id="path16" fill="#0057b7" d="m 568.4,107.9 h -10 v -10.0001 -10 -10 -10 h -10 -10 v 10 10 10 10.0001 h -10 -10 v -10.0001 -10 -10 -10 -10 -10 -10 -10 -10 -10 h 10 10 10 10 10 10 v 10 10 10 10 10 10 10 10 10 10.0001 z m -20,-60.0001 h 10 v -10 -10 h -10 -10 v 10 10 z"/><path id="path18" fill="indigo" d="m 646.4,107.9 h -10 v -10.0001 -10 -10 -10 -10 -10 h -10 -10 v 10 10 10 10 10 10.0001 h -10 -10 v -10.0001 -10 -10 -10 -10 -10 -10 -10 -10 -10 h 10 10 v 10 10 h 10 10 v -10 -10 h 10 10 v 10 10 10 10 10 10 10 10 10 10.0001 z"/><path id="path20" fill="violet" d="m 684.4,107.9 h -10 v -10.0001 -10 -10 -10 -10 -10 -10 -10 -10 -10 h 10 10 10 10 10 10 v 10 10 10 10 10 10 h -10 -10 -10 -10 v 10 10 10 10.0001 z m 20,-60.0001 h 10 v -10 -10 h -10 -10 v 10 10 z"/></g></svg>