<svg xmlns="http://www.w3.org/2000/svg" xmlns:svg="http://www.w3.org/2000/svg" id="svg22" width="735" height="116" fill="none" version="1.1" viewBox="0 0 735 116"><metadata id="metadata28"/><rect style="fill:#fff;stroke:#fff;stroke-width:.980804;stroke-linejoin:round" id="rect853" width="734.276" height="115.223" x=".214" y=".277"/><g id="g862" transform="matrix(0.93744133,0,0,0.93744133,26.066567,3.4128899)"><path id="path2" fill="#000" d="M 92.3,73.5 V 46.3 L 85.1,36.9 V 21.1 L 62,12.8 V 0 H 30.3 V 12.8 L 7.2,21.1 V 36.9 L 0,46.3 V 73.5 L 7.2,83.2 0,105.6 46.2,115.8 92.3,105.6 85.1,83.2 Z"/><path id="path4" fill="#faec20" d="M 46.2,83.2 C 58.9578,83.2 69.3,72.8578 69.3,60.1 69.3,47.3422 58.9578,37 46.2,37 33.4422,37 23.1,47.3422 23.1,60.1 c 0,12.7578 10.3422,23.1 23.1,23.1 z"/><path id="path6" fill="#000" d="m 178.4,107.9 h -10 v -10.0001 -10 -10 -10 h -10 -10 v 10 10 10 10.0001 h -10 -10 v -10.0001 -10 -10 -10 -10 -10 -10 -10 -10 -10 h 10 10 v 10 10 10 10 h 10 10 v -10 -10 -10 -10 h 10 10 v 10 10 10 10 10 10 10 10 10 10.0001 z"/><path id="path8" fill="#000" d="m 256.4,107.9 h -10 -10 -10 -10 -10 v -10.0001 -10 -10 -10 -10 -10 -10 -10 -10 -10 h 10 10 10 10 10 10 v 10 10 h -10 -10 -10 -10 v 10 10 h 10 10 10 10 v 10 10 h -10 -10 -10 -10 v 10 10 h 10 10 10 10 v 10 10.0001 z"/><path id="path10" fill="#000" d="m 334.4,107.9 h -10 v -10.0001 -10 -10 -10 h -10 -10 v 10 10 10 10.0001 h -10 -10 v -10.0001 -10 -10 -10 -10 -10 -10 -10 -10 -10 h 10 10 10 10 10 10 v 10 10 10 10 10 10 10 10 10 10.0001 z m -20,-60.0001 h 10 v -10 -10 h -10 -10 v 10 10 z"/><path id="path12" fill="#000" d="m 392.4,107.9 h -10 -10 -10 v -10.0001 -10 -10 -10 -10 -10 -10 -10 -10 -10 h 10 10 10 10 v 10 10 h 10 10 v 10 10 10 10 10 10 h -10 -10 v -10 -10 -10 -10 -10 -10 h -10 -10 v 10 10 10 10 10 10 h 10 10 v 10 10.0001 z"/><path id="path14" fill="#000" d="m 490.4,107.9 h -10 -10 -10 -10 -10 v -10.0001 -10 -10 -10 -10 -10 -10 -10 -10 -10 h 10 10 v 10 10 10 10 10 10 10 10 h 10 10 10 10 v 10 10.0001 z"/><path id="path16" fill="#000" d="m 568.4,107.9 h -10 v -10.0001 -10 -10 -10 h -10 -10 v 10 10 10 10.0001 h -10 -10 v -10.0001 -10 -10 -10 -10 -10 -10 -10 -10 -10 h 10 10 10 10 10 10 v 10 10 10 10 10 10 10 10 10 10.0001 z m -20,-60.0001 h 10 v -10 -10 h -10 -10 v 10 10 z"/><path id="path18" fill="#000" d="m 646.4,107.9 h -10 v -10.0001 -10 -10 -10 -10 -10 h -10 -10 v 10 10 10 10 10 10.0001 h -10 -10 v -10.0001 -10 -10 -10 -10 -10 -10 -10 -10 -10 h 10 10 v 10 10 h 10 10 v -10 -10 h 10 10 v 10 10 10 10 10 10 10 10 10 10.0001 z"/><path id="path20" fill="#000" d="m 684.4,107.9 h -10 v -10.0001 -10 -10 -10 -10 -10 -10 -10 -10 -10 h 10 10 10 10 10 10 v 10 10 10 10 10 10 h -10 -10 -10 -10 v 10 10 10 10.0001 z m 20,-60.0001 h 10 v -10 -10 h -10 -10 v 10 10 z"/></g></svg>